<svg width="128" height="136" viewBox="0 0 128 136" fill="none" xmlns="http://www.w3.org/2000/svg">
<rect x="2" y="2" width="124" height="132" rx="24" fill="black" stroke="white" stroke-width="4"/>
<path d="M73.2672 50.6426C72.4 51.8848 71.1871 52.8164 69.6285 53.4375C68.0816 54.0469 66.2769 54.3516 64.2144 54.3516C62.1285 54.3516 60.2769 53.8652 58.6598 52.8926C57.0426 51.9082 55.7887 50.5137 54.898 48.709C54.0191 46.9043 53.568 44.8125 53.5445 42.4336V40.2012C53.5445 36.3457 54.441 33.3574 56.234 31.2363C58.0387 29.1152 60.5699 28.0547 63.8277 28.0547C66.4996 28.0547 68.65 28.7402 70.2789 30.1113C71.9078 31.4707 72.9039 33.4043 73.2672 35.9121H69.8922C69.2594 32.5254 67.2437 30.832 63.8453 30.832C61.5836 30.832 59.8668 31.6289 58.6949 33.2227C57.5348 34.8047 56.9488 37.1016 56.9371 40.1133V42.2051C56.9371 45.0762 57.5934 47.3613 58.9059 49.0605C60.2184 50.748 61.9937 51.5918 64.232 51.5918C65.4977 51.5918 66.6051 51.4512 67.5543 51.1699C68.5035 50.8887 69.2887 50.4141 69.9098 49.7461V43.998H63.9859V41.2559H73.2672V50.6426Z" fill="white"/>
<path d="M56.3707 84V58.4062H64.7379C67.5152 58.4062 69.6012 58.9805 70.9957 60.1289C72.4019 61.2773 73.1051 62.9766 73.1051 65.2266C73.1051 66.4219 72.7652 67.4824 72.0855 68.4082C71.4059 69.3223 70.4801 70.0312 69.3082 70.5352C70.691 70.9219 71.7809 71.6602 72.5777 72.75C73.3863 73.8281 73.7906 75.1172 73.7906 76.6172C73.7906 78.9141 73.0465 80.7188 71.5582 82.0312C70.0699 83.3438 67.9664 84 65.2477 84H56.3707ZM59.7457 72.0293V81.2402H65.318C66.8883 81.2402 68.1246 80.8359 69.0269 80.0273C69.941 79.207 70.398 78.082 70.398 76.6523C70.398 73.5703 68.7223 72.0293 65.3707 72.0293H59.7457ZM59.7457 69.3223H64.8434C66.3199 69.3223 67.4977 68.9531 68.3766 68.2148C69.2672 67.4766 69.7125 66.4746 69.7125 65.209C69.7125 63.8027 69.3023 62.7832 68.482 62.1504C67.6617 61.5059 66.4137 61.1836 64.7379 61.1836H59.7457V69.3223Z" fill="white"/>
<path d="M47.4541 78.9844H51.0352V98.1143C51.0352 100.7 50.2559 102.722 48.6973 104.182C47.151 105.641 45.0853 106.371 42.5 106.371C39.8158 106.371 37.7253 105.685 36.2285 104.312C34.7318 102.938 33.9834 101.015 33.9834 98.541H37.5459C37.5459 100.087 37.9665 101.293 38.8076 102.159C39.6611 103.025 40.8919 103.458 42.5 103.458C43.972 103.458 45.1595 102.994 46.0625 102.066C46.9779 101.139 47.4417 99.8398 47.4541 98.1699V78.9844Z" fill="white"/>
<path d="M81.3922 79H75.5494V58.626H53.3287V79H47.5162V34.9219H53.3287V53.873H75.5494V34.9219H81.3922V79Z" fill="white"/>
<path d="M55.623 78.0341L64.4388 100.037L73.2546 78.0341H77.8662V105H74.3102V94.4989L74.6436 83.1643L65.7908 105H63.0683L54.234 83.2199L54.5859 94.4989V105H51.03V78.0341H55.623Z" fill="white"/>
<path d="M81.4459 78.9844H77.8648V98.1143C77.8648 100.7 78.6441 102.722 80.2027 104.182C81.7489 105.641 83.8147 106.371 86.4 106.371C89.0842 106.371 91.1747 105.685 92.6715 104.312C94.1682 102.938 94.9166 101.015 94.9166 98.541H91.3541C91.3541 100.087 90.9335 101.293 90.0924 102.159C89.2389 103.025 88.0081 103.458 86.4 103.458C84.928 103.458 83.7405 102.994 82.8375 102.066C81.9221 101.139 81.4583 99.8399 81.4459 98.1699V78.9844Z" fill="white"/>
<rect x="48" y="79" width="7.5" height="1" fill="white"/>
<rect x="48" y="79" width="7.5" height="1" fill="white"/>
<rect x="48" y="78" width="4" height="20.5" fill="white"/>
<rect x="48" y="78" width="4" height="20.5" fill="white"/>
<rect x="76" y="78" width="4" height="20.5" fill="white"/>
<rect x="76" y="78" width="4" height="20.5" fill="white"/>
</svg>
